<svg xmlns="http://www.w3.org/2000/svg" xmlns:xlink="http://www.w3.org/1999/xlink" id="Layer_2" data-name="Layer 2" viewBox="0 0 100 100"><defs><style>      .cls-1 {        fill: #336bb4;        fill-rule: evenodd;        stroke: #336bb4;        stroke-miterlimit: 10;        stroke-width: .75px;      }      .cls-2 {        fill: none;        stroke-width: 0px;      }      .cls-3 {        clip-path: url(#clippath);      }    </style><clipPath id="clippath"><rect class="cls-2" width="100" height="100"></rect></clipPath></defs><g id="Layer_1-2" data-name="Layer 1"><g class="cls-3"><g><path class="cls-1" d="m60.8,73.52c-1.41,0-2.81-.12-4.19-.23-1.34-.11-2.74-.23-4.1-.23h-14.42c-.57,0-1.04-.46-1.04-1.04s.46-1.04,1.04-1.04h14.42c1.45,0,2.88.12,4.27.24,2.98.26,5.79.49,8.57-.41,1.21-.4,2.09-1.07,3.11-1.85.32-.25.66-.51,1.02-.76l27.03-19.42c.73-.53,1.21-1.31,1.37-2.21.15-.9-.06-1.8-.59-2.53-1.05-1.46-3.11-1.78-4.8-.73l-21.24,13.1c-.49.3-1.13.15-1.43-.34-.3-.49-.15-1.13.34-1.43l21.24-13.1c2.63-1.62,5.89-1.07,7.58,1.29.85,1.18,1.19,2.63.95,4.08-.24,1.45-1.02,2.71-2.2,3.56l-27.03,19.42c-.33.24-.65.48-.96.72-1.07.82-2.19,1.68-3.74,2.18-1.75.57-3.49.75-5.21.75h.01Z"></path><path class="cls-1" d="m66.65,60.69h-20.55c-.57,0-1.04-.46-1.04-1.04s.46-1.04,1.04-1.04h20.55c1.66,0,3.02-1.35,3.02-3.02s-1.35-3.02-3.02-3.02h-10.77c-.21,0-.41-.06-.58-.18-.07-.05-7.55-5.01-15.34-3.46-4.24.84-7.85,3.45-10.72,7.78-.32.48-.96.61-1.44.29-.48-.32-.61-.96-.29-1.44,3.19-4.8,7.25-7.72,12.06-8.67,7.86-1.55,15.12,2.66,16.63,3.61h10.46c2.81,0,5.1,2.29,5.1,5.1s-2.29,5.1-5.1,5.1h0Z"></path><path class="cls-1" d="m22.36,95.44c-.71,0-1.38-.38-1.75-.97L.3,61.34c-.59-.96-.29-2.22.67-2.81l12.57-7.71c.32-.2.69-.3,1.06-.3.71,0,1.38.38,1.74.97l20.31,33.13c.29.46.37,1.01.24,1.54-.13.53-.45.98-.92,1.27l-12.57,7.71c-.32.2-.69.3-1.06.3h0ZM2.1,60.29l20.26,33.05,12.49-7.66L14.59,52.62l-12.49,7.66h0Z"></path><path class="cls-1" d="m23.36,90.27c-.08,0-.16-.01-.24-.03-.27-.06-.5-.23-.65-.47L5.33,61.83c-.3-.49-.15-1.13.34-1.43.49-.3,1.13-.15,1.43.34l16.59,27.06,6.5-3.99c.49-.3,1.13-.15,1.43.34.3.49.15,1.13-.34,1.43l-7.39,4.53c-.17.1-.35.15-.54.15h0Z"></path><path class="cls-1" d="m33.55,82.6c-.35,0-.69-.18-.89-.49l-15.87-25.88c-.15-.23-.19-.52-.13-.79.06-.27.23-.5.47-.65l6.71-4.12c.32-.2.69-.3,1.06-.3.71,0,1.38.38,1.74.97l14.82,24.18c.29.46.37,1.01.24,1.54-.13.53-.45.98-.92,1.27l-6.71,4.12c-.17.1-.36.15-.54.15h0Zm-14.44-26.58l14.78,24.11,5.79-3.55-14.78-24.11-5.78,3.55Z"></path><path class="cls-1" d="m64.77,44.7c-.27,0-.53-.1-.73-.31l-18.56-18.56c-.21-.21-.41-.43-.6-.65-4.27-4.92-4-12.38.6-16.99,2.34-2.34,5.48-3.63,8.83-3.63,3.01,0,5.91,1.07,8.16,3.03l2.31,2.01,2.31-2.01c2.25-1.95,5.15-3.03,8.16-3.03,3.35,0,6.48,1.29,8.83,3.63,4.61,4.61,4.87,12.07.6,16.99-.19.22-.4.44-.6.65l-18.56,18.56c-.2.2-.47.31-.73.31h0ZM54.29,6.65c-2.79,0-5.4,1.07-7.35,3.02-3.83,3.83-4.06,10.05-.51,14.15.16.19.33.36.51.54l17.82,17.82,17.82-17.82c.18-.18.34-.36.51-.54,3.55-4.1,3.33-10.31-.51-14.15-1.95-1.95-4.56-3.02-7.35-3.02-2.51,0-4.92.9-6.79,2.52l-3,2.6c-.39.34-.97.34-1.37,0l-3-2.6c-1.87-1.63-4.28-2.52-6.79-2.52h0Z"></path><path class="cls-1" d="m67.54,34.21h-5.55c-.57,0-1.04-.46-1.04-1.04v-4.71h-4.71c-.57,0-1.04-.46-1.04-1.04v-5.55c0-.57.46-1.04,1.04-1.04h4.71v-4.71c0-.57.46-1.04,1.04-1.04h5.55c.57,0,1.04.46,1.04,1.04v4.71h4.71c.57,0,1.04.46,1.04,1.04v5.55c0,.57-.46,1.04-1.04,1.04h-4.71v4.71c0,.57-.47,1.04-1.04,1.04Zm-4.51-2.08h3.47v-4.71c0-.57.46-1.04,1.04-1.04h4.71v-3.47h-4.71c-.57,0-1.04-.46-1.04-1.04v-4.71h-3.47v4.71c0,.57-.46,1.04-1.04,1.04h-4.71v3.47h4.71c.57,0,1.04.46,1.04,1.04v4.71Z"></path></g></g></g></svg>